<svg xmlns="http://www.w3.org/2000/svg" xmlns:xlink="http://www.w3.org/1999/xlink" contentStyleType="text/css" data-diagram-type="ACTIVITY" height="1360.4167px" preserveAspectRatio="none" style="width:545px;height:1360px;" version="1.1" viewBox="0 0 545 1360" width="545.8333px" zoomAndPan="magnify"><?plantuml 1.2026.6?><defs><linearGradient id="g1ga03tm57t7yi0" x1="50%" x2="50%" y1="0%" y2="100%"><stop offset="0%" stop-color="#35638F"/><stop offset="100%" stop-color="#033C73"/></linearGradient></defs><g><ellipse cx="225.1913" cy="26.0417" fill="#033C73" rx="10.4167" ry="10.4167" style="stroke:#2683B9;stroke-width:1.0417;"/><rect fill="none" height="223.4375" rx="4.1667" ry="4.1667" style="stroke:#2FA4E7;stroke-width:1.0417;" width="241.9118" x="104.2354" y="46.875"/><path d="M233.5599,46.875 L233.5599,54.1341 L223.1433,64.5508 L104.2354,64.5508" fill="none" style="stroke:#2FA4E7;stroke-width:1.0417;"/><text fill="#2FA4E7" font-family="'Verdana'" font-size="12.5" lengthAdjust="spacing" textLength="118.9079" x="107.3604" y="59.5194">Phase 1: &#45936;&#51060;&#53552; &#49688;&#51665;</text><rect fill="#FAFAFA" height="28.2633" rx="4.1667" ry="4.1667" style="stroke:#555555;stroke-width:1.0417;" width="179.399" x="135.4918" y="82.2591"/><text fill="#222222" font-family="'Verdana'" font-size="13.5417" lengthAdjust="spacing" textLength="166.899" x="141.7418" y="101.0788">&#53080;&#53584;&#52768; &#53581;&#49828;&#53944; &#51077;&#47141; (Step 1)</text><rect fill="#FAFAFA" height="28.2633" rx="4.1667" ry="4.1667" style="stroke:#555555;stroke-width:1.0417;" width="137.7195" x="156.3315" y="131.3558"/><text fill="#222222" font-family="'Verdana'" font-size="13.5417" lengthAdjust="spacing" textLength="125.2195" x="162.5815" y="150.1755">&#49345;&#54408;&#47749; &#51077;&#47141; (Step 2)</text><rect fill="#FAFAFA" height="28.2633" rx="4.1667" ry="4.1667" style="stroke:#555555;stroke-width:1.0417;" width="221.0785" x="114.652" y="180.4525"/><text fill="#222222" font-family="'Verdana'" font-size="13.5417" lengthAdjust="spacing" textLength="208.5785" x="120.902" y="199.2722">&#45348;&#51060;&#48260; &#45936;&#51060;&#53552;&#47017; &#47553;&#53356; &#54869;&#51064; (Step 3)</text><rect fill="#FAFAFA" height="28.2633" rx="4.1667" ry="4.1667" style="stroke:#555555;stroke-width:1.0417;" width="196.1618" x="127.1104" y="229.5492"/><text fill="#222222" font-family="'Verdana'" font-size="13.5417" lengthAdjust="spacing" textLength="183.6618" x="133.3604" y="248.3688">&#53440;&#44191; &#49457;&#48324; &#45208;&#51060;&#45824; &#51077;&#47141; (Step 4)</text><rect fill="none" height="141.0075" rx="4.1667" ry="4.1667" style="stroke:#2FA4E7;stroke-width:1.0417;" width="413.1743" x="112.6168" y="280.7292"/><path d="M230.4413,280.7292 L230.4413,287.9883 L220.0246,298.4049 L112.6168,298.4049" fill="none" style="stroke:#2FA4E7;stroke-width:1.0417;"/><text fill="#2FA4E7" font-family="'Verdana'" font-size="12.5" lengthAdjust="spacing" textLength="107.4078" x="115.7418" y="293.3736">Phase 2: &#53440;&#44191; &#48516;&#49437;</text><path d="M321.0231,318.3675 L321.0231,333.96 L300.1897,338.1266 L321.0231,342.2933 L321.0231,357.8857 A0,0 0 0 0 321.0231,357.8857 L515.3744,357.8857 A0,0 0 0 0 515.3744,357.8857 L515.3744,328.7842 L504.9577,318.3675 L321.0231,318.3675 A0,0 0 0 0 321.0231,318.3675" fill="url(#g1ga03tm57t7yi0)" style="stroke:#033C73;stroke-width:1.0417;"/><path d="M504.9577,318.3675 L504.9577,328.7842 L515.3744,328.7842 L504.9577,318.3675" fill="url(#g1ga03tm57t7yi0)" style="stroke:#033C73;stroke-width:1.0417;"/><text fill="#FFFFFF" font-family="'Verdana'" font-size="12.5" lengthAdjust="spacing" textLength="172.4763" x="327.2731" y="335.1786">&#49352; conversation_history &#49373;&#49457;</text><text fill="#FFFFFF" font-family="'Verdana'" font-size="12.5" lengthAdjust="spacing" textLength="108.4404" x="327.2731" y="349.7294">history&#50640; &#51025;&#45813; &#52628;&#44032;</text><rect fill="#FAFAFA" height="44.0267" rx="4.1667" ry="4.1667" style="stroke:#555555;stroke-width:1.0417;" width="149.9969" x="150.1928" y="316.1133"/><text fill="#222222" font-family="'Verdana'" font-size="13.5417" lengthAdjust="spacing" textLength="126.2411" x="156.4428" y="334.933">Claude API #1 &#54840;&#52636;</text><text fill="#222222" font-family="'Verdana'" font-size="13.5417" lengthAdjust="spacing" textLength="137.4969" x="156.4428" y="350.6963">&#47560;&#52992;&#54021; &#53440;&#44191; &#48516;&#49437; &#48372;&#44256;&#49436;</text><rect fill="#FAFAFA" height="28.2633" rx="4.1667" ry="4.1667" style="stroke:#555555;stroke-width:1.0417;" width="204.3157" x="123.0334" y="380.9733"/><text fill="#222222" font-family="'Verdana'" font-size="13.5417" lengthAdjust="spacing" textLength="191.8157" x="129.2834" y="399.793">&#48372;&#44256;&#49436; &#53581;&#49828;&#53944;&#48149;&#49828; &#54364;&#49884; (Step 6)</text><rect fill="none" height="149.1536" rx="4.1667" ry="4.1667" style="stroke:#2FA4E7;stroke-width:1.0417;" width="393.0678" x="118.8459" y="432.1533"/><path d="M236.6704,432.1533 L236.6704,439.4124 L226.2538,449.8291 L118.8459,449.8291" fill="none" style="stroke:#2FA4E7;stroke-width:1.0417;"/><text fill="#2FA4E7" font-family="'Verdana'" font-size="12.5" lengthAdjust="spacing" textLength="107.4078" x="121.9709" y="444.7978">Phase 3: &#51228;&#47785; &#49373;&#49457;</text><path d="M328.8485,465.6413 L328.8485,488.5091 L308.0152,492.6758 L328.8485,496.8424 L328.8485,519.7103 A0,0 0 0 0 328.8485,519.7103 L501.4971,519.7103 A0,0 0 0 0 501.4971,519.7103 L501.4971,476.0579 L491.0805,465.6413 L328.8485,465.6413 A0,0 0 0 0 328.8485,465.6413" fill="url(#g1ga03tm57t7yi0)" style="stroke:#033C73;stroke-width:1.0417;"/><path d="M491.0805,465.6413 L491.0805,476.0579 L501.4971,476.0579 L491.0805,465.6413" fill="url(#g1ga03tm57t7yi0)" style="stroke:#033C73;stroke-width:1.0417;"/><text fill="#FFFFFF" font-family="'Verdana'" font-size="12.5" lengthAdjust="spacing" textLength="104.1589" x="335.0985" y="482.4524">&#51088;&#46041; &#52628;&#44032; &#54532;&#47212;&#54532;&#53944;:</text><text fill="#FFFFFF" font-family="'Verdana'" font-size="12.5" lengthAdjust="spacing" textLength="150.7736" x="335.0985" y="497.0032">&#49345;&#54408;&#47749; &#50526; &#48176;&#52824;, 15&#44544;&#51088; &#48120;&#47564;</text><text fill="#FFFFFF" font-family="'Verdana'" font-size="12.5" lengthAdjust="spacing" textLength="79.1669" x="335.0985" y="511.554">SNS &#50976;&#54665; &#50612;&#51312;</text><rect fill="#FAFAFA" height="44.0267" rx="4.1667" ry="4.1667" style="stroke:#555555;stroke-width:1.0417;" width="165.6479" x="142.3673" y="470.6624"/><text fill="#222222" font-family="'Verdana'" font-size="13.5417" lengthAdjust="spacing" textLength="126.2411" x="148.6173" y="489.4821">Claude API #2 &#54840;&#52636;</text><text fill="#222222" font-family="'Verdana'" font-size="13.5417" lengthAdjust="spacing" textLength="153.1479" x="148.6173" y="505.2455">&#45572;&#51201; &#52968;&#53581;&#49828;&#53944; + &#51228;&#47785; &#49373;&#49457;</text><rect fill="#FAFAFA" height="28.2633" rx="4.1667" ry="4.1667" style="stroke:#555555;stroke-width:1.0417;" width="191.8573" x="129.2626" y="540.5436"/><text fill="#222222" font-family="'Verdana'" font-size="13.5417" lengthAdjust="spacing" textLength="179.3573" x="135.5126" y="559.3633">&#51228;&#47785; &#53581;&#49828;&#53944;&#48149;&#49828; &#54364;&#49884; (Step 8)</text><rect fill="none" height="141.0075" rx="4.1667" ry="4.1667" style="stroke:#2FA4E7;stroke-width:1.0417;" width="423.5922" x="93.6984" y="591.7236"/><path d="M223.0229,591.7236 L223.0229,598.9827 L212.6063,609.3994 L93.6984,609.3994" fill="none" style="stroke:#2FA4E7;stroke-width:1.0417;"/><text fill="#2FA4E7" font-family="'Verdana'" font-size="12.5" lengthAdjust="spacing" textLength="118.9079" x="96.8234" y="604.3681">Phase 4: &#51228;&#47785; &#52264;&#48324;&#54868;</text><path d="M335.0777,629.362 L335.0777,644.9544 L314.2444,649.1211 L335.0777,653.2878 L335.0777,668.8802 A0,0 0 0 0 335.0777,668.8802 L506.8739,668.8802 A0,0 0 0 0 506.8739,668.8802 L506.8739,639.7786 L496.4573,629.362 L335.0777,629.362 A0,0 0 0 0 335.0777,629.362" fill="url(#g1ga03tm57t7yi0)" style="stroke:#033C73;stroke-width:1.0417;"/><path d="M496.4573,629.362 L496.4573,639.7786 L506.8739,639.7786 L496.4573,629.362" fill="url(#g1ga03tm57t7yi0)" style="stroke:#033C73;stroke-width:1.0417;"/><text fill="#FFFFFF" font-family="'Verdana'" font-size="12.5" lengthAdjust="spacing" textLength="104.1589" x="341.3277" y="646.1731">&#51088;&#46041; &#52628;&#44032; &#54532;&#47212;&#54532;&#53944;:</text><text fill="#FFFFFF" font-family="'Verdana'" font-size="12.5" lengthAdjust="spacing" textLength="149.9212" x="341.3277" y="660.7239">&#45348;&#51060;&#48260; &#49345;&#50948;&#45432;&#52636;&#44284; &#45804;&#46972;&#50556; &#46076;</text><rect fill="#FAFAFA" height="44.0267" rx="4.1667" ry="4.1667" style="stroke:#555555;stroke-width:1.0417;" width="178.1062" x="136.1382" y="627.1077"/><text fill="#222222" font-family="'Verdana'" font-size="13.5417" lengthAdjust="spacing" textLength="126.2411" x="142.3882" y="645.9274">Claude API #3 &#54840;&#52636;</text><text fill="#222222" font-family="'Verdana'" font-size="13.5417" lengthAdjust="spacing" textLength="165.6062" x="142.3882" y="661.6908">&#45572;&#51201; &#52968;&#53581;&#49828;&#53944; + &#52264;&#48324;&#54868; &#50836;&#52397;</text><rect fill="#FAFAFA" height="28.2633" rx="4.1667" ry="4.1667" style="stroke:#555555;stroke-width:1.0417;" width="242.1525" x="104.115" y="691.9678"/><text fill="#222222" font-family="'Verdana'" font-size="13.5417" lengthAdjust="spacing" textLength="229.6525" x="110.365" y="710.7875">&#52264;&#48324;&#54868; &#51228;&#47785; &#53581;&#49828;&#53944;&#48149;&#49828; &#54364;&#49884; (Step 10)</text><rect fill="none" height="552.948" rx="4.1667" ry="4.1667" style="stroke:#2FA4E7;stroke-width:1.0417;" width="488.0789" x="16.6667" y="743.1478"/><path d="M145.9912,743.1478 L145.9912,750.4069 L135.5746,760.8236 L16.6667,760.8236" fill="none" style="stroke:#2FA4E7;stroke-width:1.0417;"/><text fill="#2FA4E7" font-family="'Verdana'" font-size="12.5" lengthAdjust="spacing" textLength="118.9079" x="19.7917" y="755.7922">Phase 5: &#54588;&#46300;&#48177; &#47336;&#54532;</text><rect fill="#FAFAFA" height="28.2633" rx="4.1667" ry="4.1667" style="stroke:#555555;stroke-width:1.0417;" width="114.975" x="167.7038" y="778.5319"/><text fill="#222222" font-family="'Verdana'" font-size="13.5417" lengthAdjust="spacing" textLength="102.475" x="173.9538" y="797.3516">loop_count = 0</text><rect fill="#FAFAFA" height="28.2633" rx="4.1667" ry="4.1667" style="stroke:#555555;stroke-width:1.0417;" width="163.0979" x="143.6423" y="873.4619"/><text fill="#222222" font-family="'Verdana'" font-size="13.5417" lengthAdjust="spacing" textLength="150.5979" x="149.8923" y="892.2816">&#44060;&#49440; &#49324;&#54637; &#51077;&#47141; (Step 11)</text><polygon fill="#FAFAFA" points="164.6869,922.5586,285.6957,922.5586,298.1957,935.0586,285.6957,947.5586,164.6869,947.5586,152.1869,935.0586,164.6869,922.5586" style="stroke:#555555;stroke-width:1.0417;stroke-linejoin:miter;stroke-miterlimit:10;"/><text fill="#343A40" font-family="'Verdana'" font-size="13.5417" lengthAdjust="spacing" textLength="121.0088" x="164.6869" y="939.7466">loop_count &gt;= 2?</text><text fill="#343A40" font-family="'Verdana'" font-size="12.5" lengthAdjust="spacing" textLength="23.468" x="128.7188" y="932.1106">YES</text><text fill="#343A40" font-family="'Verdana'" font-size="12.5" lengthAdjust="spacing" textLength="19.1895" x="298.1957" y="932.1106">NO</text><rect fill="#FAFAFA" height="28.2633" rx="4.1667" ry="4.1667" style="stroke:#555555;stroke-width:1.0417;" width="166.7598" x="29.1667" y="957.9753"/><text fill="#222222" font-family="'Verdana'" font-size="13.5417" lengthAdjust="spacing" textLength="154.2598" x="35.4167" y="976.7949">&#52572;&#45824; &#54588;&#46300;&#48177; &#54943;&#49688; &#52488;&#44284; &#50504;&#45236;</text><ellipse cx="112.5465" cy="1034.1553" fill="none" rx="11.4583" ry="11.4583" style="stroke:#2683B9;stroke-width:1.0417;"/><ellipse cx="112.5465" cy="1034.1553" fill="none" rx="6.25" ry="6.25" style="stroke:#2683B9;stroke-width:1.0417;"/><rect fill="#FAFAFA" height="44.0267" rx="4.1667" ry="4.1667" style="stroke:#555555;stroke-width:1.0417;" width="185.3753" x="245.1483" y="957.9753"/><text fill="#222222" font-family="'Verdana'" font-size="13.5417" lengthAdjust="spacing" textLength="172.8753" x="251.3983" y="976.7949">Claude API &#54588;&#46300;&#48177; &#48152;&#50689; &#54840;&#52636;</text><text fill="#222222" font-family="'Verdana'" font-size="13.5417" lengthAdjust="spacing" textLength="136.385" x="251.3983" y="992.5583">&#45572;&#51201; &#52968;&#53581;&#49828;&#53944; + &#54588;&#46300;&#48177;</text><rect fill="#FAFAFA" height="28.2633" rx="4.1667" ry="4.1667" style="stroke:#555555;stroke-width:1.0417;" width="242.1525" x="216.7598" y="1038.4603"/><text fill="#222222" font-family="'Verdana'" font-size="13.5417" lengthAdjust="spacing" textLength="229.6525" x="223.0098" y="1057.28">&#44060;&#49440;&#46108; &#51228;&#47785; &#53581;&#49828;&#53944;&#48149;&#49828; &#54364;&#49884; (Step 12)</text><rect fill="#FAFAFA" height="28.2633" rx="4.1667" ry="4.1667" style="stroke:#555555;stroke-width:1.0417;" width="208.8343" x="233.4188" y="1087.557"/><text fill="#222222" font-family="'Verdana'" font-size="13.5417" lengthAdjust="spacing" textLength="196.3343" x="239.6688" y="1106.3766">loop_count = loop_count + 1</text><rect fill="#FAFAFA" height="28.2633" rx="4.1667" ry="4.1667" style="stroke:#555555;stroke-width:1.0417;" width="207.6603" x="121.3611" y="1136.6536"/><text fill="#222222" font-family="'Verdana'" font-size="13.5417" lengthAdjust="spacing" textLength="195.1603" x="127.6111" y="1155.4733">&#45908; &#49688;&#51221;&#54616;&#44256; &#49910;&#51004;&#49464;&#50836;? (Step 13)</text><polygon fill="#FAFAFA" points="225.1913,827.6286,237.6913,840.1286,225.1913,852.6286,212.6913,840.1286,225.1913,827.6286" style="stroke:#555555;stroke-width:1.0417;stroke-linejoin:miter;stroke-miterlimit:10;"/><polygon fill="#FAFAFA" points="208.8857,1185.7503,241.4968,1185.7503,253.9968,1198.2503,241.4968,1210.7503,208.8857,1210.7503,196.3857,1198.2503,208.8857,1185.7503" style="stroke:#555555;stroke-width:1.0417;stroke-linejoin:miter;stroke-miterlimit:10;"/><text fill="#343A40" font-family="'Verdana'" font-size="13.5417" lengthAdjust="spacing" textLength="32.6111" x="208.8857" y="1202.9383">YES?</text><text fill="#343A40" font-family="'Verdana'" font-size="12.5" lengthAdjust="spacing" textLength="23.468" x="253.9968" y="1195.3023">YES</text><rect fill="#FAFAFA" height="28.2633" rx="4.1667" ry="4.1667" style="stroke:#555555;stroke-width:1.0417;" width="214.0553" x="118.1636" y="1255.3324"/><text fill="#222222" font-family="'Verdana'" font-size="13.5417" lengthAdjust="spacing" textLength="201.5553" x="124.4136" y="1274.1521">&#51228;&#47785;&#51060; &#50756;&#49457;&#46104;&#50632;&#49845;&#45768;&#45796;! (Step 15)</text><ellipse cx="225.1913" cy="1328.3875" fill="none" rx="11.4583" ry="11.4583" style="stroke:#2683B9;stroke-width:1.0417;"/><ellipse cx="225.1913" cy="1328.3875" fill="none" rx="6.25" ry="6.25" style="stroke:#2683B9;stroke-width:1.0417;"/><line style="stroke:#2FA4E7;stroke-width:3.125;" x1="225.1913" x2="225.1913" y1="110.5225" y2="131.3558"/><polygon fill="#2FA4E7" points="221.0246,120.9391,225.1913,131.3558,229.3579,120.9391,225.1913,125.1058" style="stroke:#2FA4E7;stroke-width:1.0417;stroke-linejoin:miter;stroke-miterlimit:10;"/><line style="stroke:#2FA4E7;stroke-width:3.125;" x1="225.1913" x2="225.1913" y1="159.6191" y2="180.4525"/><polygon fill="#2FA4E7" points="221.0246,170.0358,225.1913,180.4525,229.3579,170.0358,225.1913,174.2025" style="stroke:#2FA4E7;stroke-width:1.0417;stroke-linejoin:miter;stroke-miterlimit:10;"/><line style="stroke:#2FA4E7;stroke-width:3.125;" x1="225.1913" x2="225.1913" y1="208.7158" y2="229.5492"/><polygon fill="#2FA4E7" points="221.0246,219.1325,225.1913,229.5492,229.3579,219.1325,225.1913,223.2992" style="stroke:#2FA4E7;stroke-width:1.0417;stroke-linejoin:miter;stroke-miterlimit:10;"/><line style="stroke:#2FA4E7;stroke-width:3.125;" x1="225.1913" x2="225.1913" y1="36.4583" y2="82.2591"/><polygon fill="#2FA4E7" points="221.0246,71.8424,225.1913,82.2591,229.3579,71.8424,225.1913,76.0091" style="stroke:#2FA4E7;stroke-width:1.0417;stroke-linejoin:miter;stroke-miterlimit:10;"/><line style="stroke:#2FA4E7;stroke-width:3.125;" x1="225.1913" x2="225.1913" y1="360.14" y2="380.9733"/><polygon fill="#2FA4E7" points="221.0246,370.5566,225.1913,380.9733,229.3579,370.5566,225.1913,374.7233" style="stroke:#2FA4E7;stroke-width:1.0417;stroke-linejoin:miter;stroke-miterlimit:10;"/><line style="stroke:#2FA4E7;stroke-width:3.125;" x1="225.1913" x2="225.1913" y1="257.8125" y2="316.1133"/><polygon fill="#2FA4E7" points="221.0246,305.6966,225.1913,316.1133,229.3579,305.6966,225.1913,309.8633" style="stroke:#2FA4E7;stroke-width:1.0417;stroke-linejoin:miter;stroke-miterlimit:10;"/><line style="stroke:#2FA4E7;stroke-width:3.125;" x1="225.1913" x2="225.1913" y1="514.6891" y2="540.5436"/><polygon fill="#2FA4E7" points="221.0246,530.127,225.1913,540.5436,229.3579,530.127,225.1913,534.2936" style="stroke:#2FA4E7;stroke-width:1.0417;stroke-linejoin:miter;stroke-miterlimit:10;"/><line style="stroke:#2FA4E7;stroke-width:3.125;" x1="225.1913" x2="225.1913" y1="409.2367" y2="470.6624"/><polygon fill="#2FA4E7" points="221.0246,460.2458,225.1913,470.6624,229.3579,460.2458,225.1913,464.4124" style="stroke:#2FA4E7;stroke-width:1.0417;stroke-linejoin:miter;stroke-miterlimit:10;"/><line style="stroke:#2FA4E7;stroke-width:3.125;" x1="225.1913" x2="225.1913" y1="671.1344" y2="691.9678"/><polygon fill="#2FA4E7" points="221.0246,681.5511,225.1913,691.9678,229.3579,681.5511,225.1913,685.7178" style="stroke:#2FA4E7;stroke-width:1.0417;stroke-linejoin:miter;stroke-miterlimit:10;"/><line style="stroke:#2FA4E7;stroke-width:3.125;" x1="225.1913" x2="225.1913" y1="568.807" y2="627.1077"/><polygon fill="#2FA4E7" points="221.0246,616.6911,225.1913,627.1077,229.3579,616.6911,225.1913,620.8577" style="stroke:#2FA4E7;stroke-width:1.0417;stroke-linejoin:miter;stroke-miterlimit:10;"/><line style="stroke:#2FA4E7;stroke-width:3.125;" x1="112.5465" x2="112.5465" y1="986.2386" y2="1022.6969"/><polygon fill="#2FA4E7" points="108.3799,1012.2803,112.5465,1022.6969,116.7132,1012.2803,112.5465,1016.4469" style="stroke:#2FA4E7;stroke-width:1.0417;stroke-linejoin:miter;stroke-miterlimit:10;"/><line style="stroke:#2FA4E7;stroke-width:3.125;" x1="337.836" x2="337.836" y1="1002.002" y2="1038.4603"/><polygon fill="#2FA4E7" points="333.6693,1028.0436,337.836,1038.4603,342.0027,1028.0436,337.836,1032.2103" style="stroke:#2FA4E7;stroke-width:1.0417;stroke-linejoin:miter;stroke-miterlimit:10;"/><line style="stroke:#2FA4E7;stroke-width:3.125;" x1="337.836" x2="337.836" y1="1066.7236" y2="1087.557"/><polygon fill="#2FA4E7" points="333.6693,1077.1403,337.836,1087.557,342.0027,1077.1403,337.836,1081.307" style="stroke:#2FA4E7;stroke-width:1.0417;stroke-linejoin:miter;stroke-miterlimit:10;"/><line style="stroke:#2FA4E7;stroke-width:3.125;" x1="152.1869" x2="112.5465" y1="935.0586" y2="935.0586"/><line style="stroke:#2FA4E7;stroke-width:3.125;" x1="112.5465" x2="112.5465" y1="935.0586" y2="957.9753"/><polygon fill="#2FA4E7" points="108.3799,947.5586,112.5465,957.9753,116.7132,947.5586,112.5465,951.7253" style="stroke:#2FA4E7;stroke-width:1.0417;stroke-linejoin:miter;stroke-miterlimit:10;"/><line style="stroke:#2FA4E7;stroke-width:3.125;" x1="298.1957" x2="337.836" y1="935.0586" y2="935.0586"/><line style="stroke:#2FA4E7;stroke-width:3.125;" x1="337.836" x2="337.836" y1="935.0586" y2="957.9753"/><polygon fill="#2FA4E7" points="333.6693,947.5586,337.836,957.9753,342.0027,947.5586,337.836,951.7253" style="stroke:#2FA4E7;stroke-width:1.0417;stroke-linejoin:miter;stroke-miterlimit:10;"/><line style="stroke:#2FA4E7;stroke-width:3.125;" x1="337.836" x2="337.836" y1="1115.8203" y2="1121.0286"/><line style="stroke:#2FA4E7;stroke-width:3.125;" x1="337.836" x2="225.1913" y1="1121.0286" y2="1121.0286"/><line style="stroke:#2FA4E7;stroke-width:3.125;" x1="225.1913" x2="225.1913" y1="1121.0286" y2="1136.6536"/><polygon fill="#2FA4E7" points="221.0246,1126.237,225.1913,1136.6536,229.3579,1126.237,225.1913,1130.4036" style="stroke:#2FA4E7;stroke-width:1.0417;stroke-linejoin:miter;stroke-miterlimit:10;"/><line style="stroke:#2FA4E7;stroke-width:3.125;" x1="225.1913" x2="225.1913" y1="901.7253" y2="922.5586"/><polygon fill="#2FA4E7" points="221.0246,912.1419,225.1913,922.5586,229.3579,912.1419,225.1913,916.3086" style="stroke:#2FA4E7;stroke-width:1.0417;stroke-linejoin:miter;stroke-miterlimit:10;"/><line style="stroke:#2FA4E7;stroke-width:3.125;" x1="225.1913" x2="225.1913" y1="852.6286" y2="873.4619"/><polygon fill="#2FA4E7" points="221.0246,863.0452,225.1913,873.4619,229.3579,863.0452,225.1913,867.2119" style="stroke:#2FA4E7;stroke-width:1.0417;stroke-linejoin:miter;stroke-miterlimit:10;"/><line style="stroke:#2FA4E7;stroke-width:3.125;" x1="253.9968" x2="481.8289" y1="1198.2503" y2="1198.2503"/><polygon fill="#2FA4E7" points="477.6622,1040.5436,481.8289,1030.127,485.9956,1040.5436,481.8289,1036.377" style="stroke:#2FA4E7;stroke-width:3.125;stroke-linejoin:miter;stroke-miterlimit:10;"/><line style="stroke:#2FA4E7;stroke-width:3.125;" x1="481.8289" x2="481.8289" y1="840.1286" y2="1198.2503"/><line style="stroke:#2FA4E7;stroke-width:3.125;" x1="481.8289" x2="237.6913" y1="840.1286" y2="840.1286"/><polygon fill="#2FA4E7" points="248.1079,835.9619,237.6913,840.1286,248.1079,844.2952,243.9413,840.1286" style="stroke:#2FA4E7;stroke-width:1.0417;stroke-linejoin:miter;stroke-miterlimit:10;"/><line style="stroke:#2FA4E7;stroke-width:3.125;" x1="225.1913" x2="225.1913" y1="1164.917" y2="1185.7503"/><polygon fill="#2FA4E7" points="221.0246,1175.3337,225.1913,1185.7503,229.3579,1175.3337,225.1913,1179.5003" style="stroke:#2FA4E7;stroke-width:1.0417;stroke-linejoin:miter;stroke-miterlimit:10;"/><line style="stroke:#2FA4E7;stroke-width:3.125;" x1="225.1913" x2="225.1913" y1="806.7952" y2="827.6286"/><polygon fill="#2FA4E7" points="221.0246,817.2119,225.1913,827.6286,229.3579,817.2119,225.1913,821.3786" style="stroke:#2FA4E7;stroke-width:1.0417;stroke-linejoin:miter;stroke-miterlimit:10;"/><line style="stroke:#2FA4E7;stroke-width:3.125;" x1="225.1913" x2="225.1913" y1="1210.7503" y2="1255.3324"/><polygon fill="#2FA4E7" points="221.0246,1244.9158,225.1913,1255.3324,229.3579,1244.9158,225.1913,1249.0824" style="stroke:#2FA4E7;stroke-width:1.0417;stroke-linejoin:miter;stroke-miterlimit:10;"/><text fill="#343A40" font-family="'Verdana'" font-size="12.5" lengthAdjust="spacing" textLength="19.1895" x="229.3579" y="1234.1553">NO</text><line style="stroke:#2FA4E7;stroke-width:3.125;" x1="225.1913" x2="225.1913" y1="720.2311" y2="778.5319"/><polygon fill="#2FA4E7" points="221.0246,768.1152,225.1913,778.5319,229.3579,768.1152,225.1913,772.2819" style="stroke:#2FA4E7;stroke-width:1.0417;stroke-linejoin:miter;stroke-miterlimit:10;"/><line style="stroke:#2FA4E7;stroke-width:3.125;" x1="225.1913" x2="225.1913" y1="1283.5958" y2="1316.9291"/><polygon fill="#2FA4E7" points="221.0246,1306.5125,225.1913,1316.9291,229.3579,1306.5125,225.1913,1310.6791" style="stroke:#2FA4E7;stroke-width:1.0417;stroke-linejoin:miter;stroke-miterlimit:10;"/><?plantuml-src dLHjIzjG5FxUNt7KBueRsDQEKL5nCc5VdD1FWu646csm9YMD3ZS6hQQGMSMwDHebrSeSlb1Pj5KwrlsXtdF_msvUsbYfKzP0kSazppddUSvBZvBWbtY8y_9oakV4G7fH45ESp2q15rU45K5PdP949IPyv24OxdBxYeilBiZIiZWtAIKb6Vgc9kodcwKap_6oPnLnVe50Mk5a9H1WbegW2988lJC9BirYHO5iMLYgKTK2r0mytUc5Jm60AFunQAw0zJBGt1PkdD2DEk1XZfH_G7zCuLCG71XnxDQpzAj6BdATjo7tbgWdp3cvLlqmvF0So6cMPYj0ztKirJr4s4NGzKpp-WXGlI9LXbepRFncfjFxCBFzt8LEA0eUdjogg9OyBfD9RdcEXucPDz0N16hKyTPyBv9J3HiPkfdhn02frfhLCggcdOyeAJp8ma92OIy0kAv1N19NU3dDsO5d4q9QaUHLTb5YAJistYVSAm2MTaZ-1l2ssBGox98NvnoFZZIjCBx0nDBP0UYEYNdJe_hY0QhXA63P91VdNkWkL4C-LKt5SXRmzvbVpC5EV3UoXmMolUzb3xIeakCA-sVWg2T6k_Jw8H3Bmb_6CmX6clKCWmBvMIUdcuvbR3e6Q9RfxXV0tHeUM_Uqy3Bvfn0l7n1Ys1V2EcCzG_UBNRG8FwP52mjuKCJho_-Gm-zr9WoQAidP0PlL1f1yXPGQgBFJTkC-TJ_m4qG83ZsWGeHrVh51lfd4kWBo_OmbvgcGbAJKR9nj3WL6OMWamBx9V8hdN5BHfcMYMWPSgr3zyjw4koCE8Cn3_nqtOwCG6Xy0jj54w7_tEZRW6DbSRanxLFr4wC4HMog0DSsM0NMDhDL6F6is92ddo2TP_ltJRzjkxjJj3YVBG2FxI1NRvgqW7ZrIC9ycRsYWZUpGxSxB80HT6rP5OTuLaMmLdUrPrgbkiAa6pD-YsK2rphfflENStN2k-F0X8IHvHpucfP1k2_by3ARVEbNofeBr5E2-QY_4We5x6cxSaBn6yYSzBRyHjoTiGVy2?></g></svg>