<svg xmlns="http://www.w3.org/2000/svg" xmlns:xlink="http://www.w3.org/1999/xlink" contentStyleType="text/css" data-diagram-type="CLASS" height="810.4167px" preserveAspectRatio="none" style="width:877px;height:810px;" version="1.1" viewBox="0 0 877 810" width="877.0833px" zoomAndPan="magnify"><?plantuml 1.2026.6?><defs><linearGradient id="gqkb9ij1735t20" x1="50%" x2="50%" y1="0%" y2="100%"><stop offset="0%" stop-color="#59B6EC"/><stop offset="100%" stop-color="#2FA4E7"/></linearGradient><linearGradient id="gqkb9ij1735t21" x1="50%" x2="50%" y1="0%" y2="100%"><stop offset="0%" stop-color="#2FA4E7"/><stop offset="100%" stop-color="#2683B9"/></linearGradient></defs><g><!--cluster titlegene/--><g class="cluster" data-qualified-name="titlegene." data-source-line="5" id="ent0001"><rect fill="none" height="773.4479" rx="4.1667" ry="4.1667" style="stroke:#59B6EC;stroke-width:2.0833;" width="839.5833" x="17.7083" y="17.7083"/><text fill="#2FA4E7" font-family="'Verdana'" font-size="12.5" font-weight="700" lengthAdjust="spacing" textLength="68.3655" x="403.3173" y="31.3944">titlegene/</text></g><!--cluster routers/--><g class="cluster" data-qualified-name="titlegene..routers." data-source-line="13" id="ent0003"><rect fill="none" height="164.6042" rx="4.1667" ry="4.1667" style="stroke:#59B6EC;stroke-width:2.0833;" width="202.0833" x="462.5" y="168.1458"/><text fill="#2FA4E7" font-family="'Verdana'" font-size="12.5" font-weight="700" lengthAdjust="spacing" textLength="56.2744" x="535.4045" y="181.8319">routers/</text></g><!--cluster services/--><g class="cluster" data-qualified-name="titlegene..services." data-source-line="23" id="ent0005"><rect fill="none" height="408.4063" rx="4.1667" ry="4.1667" style="stroke:#59B6EC;stroke-width:2.0833;" width="556.25" x="42.7083" y="357.75"/><text fill="#2FA4E7" font-family="'Verdana'" font-size="12.5" font-weight="700" lengthAdjust="spacing" textLength="62.4084" x="289.6291" y="371.4361">services/</text></g><!--cluster models/--><g class="cluster" data-qualified-name="titlegene..models." data-source-line="55" id="ent0009"><rect fill="none" height="151.2708" rx="4.1667" ry="4.1667" style="stroke:#59B6EC;stroke-width:2.0833;" width="147.9167" x="623.9583" y="384.4271"/><text fill="#2FA4E7" font-family="'Verdana'" font-size="12.5" font-weight="700" lengthAdjust="spacing" textLength="55.3284" x="670.2525" y="398.1132">models/</text></g><!--class Main--><g class="entity" data-qualified-name="titlegene..Main" data-source-line="7" id="ent0002"><rect fill="url(#gqkb9ij1735t20)" height="87.9313" rx="4.1667" ry="4.1667" style="stroke:#2FA4E7;stroke-width:1.0417;" width="119.4911" x="503.7917" y="51.0417"/><rect fill="url(#gqkb9ij1735t21)" height="31.25" rx="4.1667" ry="4.1667" style="stroke:url(#gqkb9ij1735t21);stroke-width:1.0417;" width="119.4911" x="503.7917" y="51.0417"/><rect fill="url(#gqkb9ij1735t21)" height="4.1667" style="stroke:url(#gqkb9ij1735t21);stroke-width:1.0417;" width="119.4911" x="503.7917" y="78.125"/><rect fill="none" height="87.9313" rx="4.1667" ry="4.1667" style="stroke:#2FA4E7;stroke-width:1.0417;" width="119.4911" x="503.7917" y="51.0417"/><ellipse cx="537.2369" cy="66.6667" fill="#EDF0F2" rx="10.4167" ry="10.4167" style="stroke:#BABDBF;stroke-width:1.0417;"/><path d="M539.1412,71.0938 Q538.718,71.3053 538.246,71.4193 Q537.774,71.5332 537.2695,71.5332 Q535.414,71.5332 534.4374,70.3288 Q533.4772,69.1081 533.4772,66.8132 Q533.4772,64.502 534.4374,63.2975 Q535.414,62.0768 537.2695,62.0768 Q537.774,62.0768 538.246,62.1908 Q538.7343,62.2884 539.1412,62.5163 L539.1412,64.5182 Q538.6855,64.0951 538.246,63.8997 Q537.8066,63.6882 537.3509,63.6882 Q536.358,63.6882 535.8535,64.4857 Q535.3489,65.2669 535.3489,66.8132 Q535.3489,68.3431 535.8535,69.1243 Q536.358,69.9056 537.3509,69.9056 Q537.8066,69.9056 538.246,69.7103 Q538.6855,69.515 539.1412,69.0918 L539.1412,71.0938 Z " fill="#FFFFFF"/><text fill="#F8F9FA" font-family="'Verdana'" font-size="11.4583" lengthAdjust="spacing" textLength="46.3257" x="554.9701" y="70.6334">main.py</text><line style="stroke:#2FA4E7;stroke-width:1.0417;" x1="504.8333" x2="622.2411" y1="82.2917" y2="82.2917"/><text fill="#F8F9FA" font-family="'Verdana'" font-size="11.4583" lengthAdjust="spacing" textLength="84.5164" x="510.0417" y="97.0942">+app : FastAPI</text><line style="stroke:#2FA4E7;stroke-width:1.0417;" x1="504.8333" x2="622.2411" y1="103.9632" y2="103.9632"/><text fill="#F8F9FA" font-family="'Verdana'" font-size="11.4583" lengthAdjust="spacing" textLength="63.5188" x="510.0417" y="118.7658">+lifespan()</text><text fill="#F8F9FA" font-family="'Verdana'" font-size="11.4583" lengthAdjust="spacing" textLength="106.9911" x="510.0417" y="132.104">+include_routers()</text></g><!--class Config--><g class="entity" data-qualified-name="titlegene..Config" data-source-line="64" id="ent0011"><rect fill="url(#gqkb9ij1735t20)" height="101.2695" rx="4.1667" ry="4.1667" style="stroke:#2FA4E7;stroke-width:1.0417;" width="221.3181" x="619.5521" y="628.2083"/><rect fill="url(#gqkb9ij1735t21)" height="31.25" rx="4.1667" ry="4.1667" style="stroke:url(#gqkb9ij1735t21);stroke-width:1.0417;" width="221.3181" x="619.5521" y="628.2083"/><rect fill="url(#gqkb9ij1735t21)" height="4.1667" style="stroke:url(#gqkb9ij1735t21);stroke-width:1.0417;" width="221.3181" x="619.5521" y="655.2917"/><rect fill="none" height="101.2695" rx="4.1667" ry="4.1667" style="stroke:#2FA4E7;stroke-width:1.0417;" width="221.3181" x="619.5521" y="628.2083"/><ellipse cx="699.6645" cy="643.8333" fill="#EDF0F2" rx="10.4167" ry="10.4167" style="stroke:#BABDBF;stroke-width:1.0417;"/><path d="M701.5688,648.2604 Q701.1457,648.472 700.6737,648.5859 Q700.2016,648.6999 699.6971,648.6999 Q697.8416,648.6999 696.8651,647.4954 Q695.9048,646.2747 695.9048,643.9798 Q695.9048,641.6686 696.8651,640.4642 Q697.8416,639.2435 699.6971,639.2435 Q700.2016,639.2435 700.6737,639.3574 Q701.1619,639.4551 701.5688,639.6829 L701.5688,641.6849 Q701.1131,641.2617 700.6737,641.0664 Q700.2342,640.8548 699.7785,640.8548 Q698.7856,640.8548 698.2811,641.6523 Q697.7765,642.4336 697.7765,643.9798 Q697.7765,645.5098 698.2811,646.291 Q698.7856,647.0723 699.7785,647.0723 Q700.2342,647.0723 700.6737,646.877 Q701.1131,646.6816 701.5688,646.2585 L701.5688,648.2604 Z " fill="#FFFFFF"/><text fill="#F8F9FA" font-family="'Verdana'" font-size="11.4583" lengthAdjust="spacing" textLength="52.7598" x="719.4562" y="647.8001">config.py</text><line style="stroke:#2FA4E7;stroke-width:1.0417;" x1="620.5938" x2="839.8285" y1="659.4583" y2="659.4583"/><text fill="#F8F9FA" font-family="'Verdana'" font-size="11.4583" lengthAdjust="spacing" textLength="154.5532" x="625.8021" y="674.2609">+ANTHROPIC_API_KEY : str</text><text fill="#F8F9FA" font-family="'Verdana'" font-size="11.4583" lengthAdjust="spacing" textLength="208.8181" x="625.8021" y="687.5991">+MODEL : str = "claude-sonnet-4-6"</text><text fill="#F8F9FA" font-family="'Verdana'" font-size="11.4583" lengthAdjust="spacing" textLength="169.2006" x="625.8021" y="700.9373">+MAX_LOOP_COUNT : int = 2</text><text fill="#F8F9FA" font-family="'Verdana'" font-size="11.4583" lengthAdjust="spacing" textLength="159.6502" x="625.8021" y="714.2755">+MAX_TOKENS : int = 1024</text><line style="stroke:#2FA4E7;stroke-width:1.0417;" x1="620.5938" x2="839.8285" y1="721.1445" y2="721.1445"/></g><!--class Router--><g class="entity" data-qualified-name="titlegene..routers..Router" data-source-line="14" id="ent0004"><rect fill="url(#gqkb9ij1735t20)" height="114.6077" rx="4.1667" ry="4.1667" style="stroke:#2FA4E7;stroke-width:1.0417;" width="168.5303" x="479.2813" y="201.4792"/><rect fill="url(#gqkb9ij1735t21)" height="31.25" rx="4.1667" ry="4.1667" style="stroke:url(#gqkb9ij1735t21);stroke-width:1.0417;" width="168.5303" x="479.2813" y="201.4792"/><rect fill="url(#gqkb9ij1735t21)" height="4.1667" style="stroke:url(#gqkb9ij1735t21);stroke-width:1.0417;" width="168.5303" x="479.2813" y="228.5625"/><rect fill="none" height="114.6077" rx="4.1667" ry="4.1667" style="stroke:#2FA4E7;stroke-width:1.0417;" width="168.5303" x="479.2813" y="201.4792"/><ellipse cx="524.5767" cy="217.1042" fill="#EDF0F2" rx="10.4167" ry="10.4167" style="stroke:#BABDBF;stroke-width:1.0417;"/><path d="M526.481,221.5312 Q526.0578,221.7428 525.5858,221.8568 Q525.1138,221.9707 524.6093,221.9707 Q522.7538,221.9707 521.7772,220.7663 Q520.8169,219.5456 520.8169,217.2507 Q520.8169,214.9395 521.7772,213.735 Q522.7538,212.5143 524.6093,212.5143 Q525.1138,212.5143 525.5858,212.6283 Q526.0741,212.7259 526.481,212.9538 L526.481,214.9557 Q526.0253,214.5326 525.5858,214.3372 Q525.1464,214.1257 524.6906,214.1257 Q523.6978,214.1257 523.1932,214.9232 Q522.6887,215.7044 522.6887,217.2507 Q522.6887,218.7806 523.1932,219.5618 Q523.6978,220.3431 524.6906,220.3431 Q525.1464,220.3431 525.5858,220.1478 Q526.0253,219.9525 526.481,219.5293 L526.481,221.5312 Z " fill="#FFFFFF"/><text fill="#F8F9FA" font-family="'Verdana'" font-size="11.4583" lengthAdjust="spacing" textLength="69.606" x="544.3684" y="221.0709">generate.py</text><line style="stroke:#2FA4E7;stroke-width:1.0417;" x1="480.3229" x2="646.7699" y1="232.7292" y2="232.7292"/><text fill="#F8F9FA" font-family="'Verdana'" font-size="11.4583" lengthAdjust="spacing" textLength="112.5971" x="485.5313" y="247.5317">+router : APIRouter</text><line style="stroke:#2FA4E7;stroke-width:1.0417;" x1="480.3229" x2="646.7699" y1="254.4007" y2="254.4007"/><text fill="#F8F9FA" font-family="'Verdana'" font-size="11.4583" lengthAdjust="spacing" textLength="121.9182" x="485.5313" y="269.2033">+POST /api/analyze()</text><text fill="#F8F9FA" font-family="'Verdana'" font-size="11.4583" lengthAdjust="spacing" textLength="156.0303" x="485.5313" y="282.5415">+POST /api/generate-title()</text><text fill="#F8F9FA" font-family="'Verdana'" font-size="11.4583" lengthAdjust="spacing" textLength="148.4212" x="485.5313" y="295.8797">+POST /api/differentiate()</text><text fill="#F8F9FA" font-family="'Verdana'" font-size="11.4583" lengthAdjust="spacing" textLength="110.8739" x="485.5313" y="309.2179">+POST /api/refine()</text></g><!--class ClaudeService--><g class="entity" data-qualified-name="titlegene..services..ClaudeService" data-source-line="24" id="ent0006"><rect fill="url(#gqkb9ij1735t20)" height="154.6224" rx="4.1667" ry="4.1667" style="stroke:#2FA4E7;stroke-width:1.0417;" width="305.3813" x="276.4792" y="391.0833"/><rect fill="url(#gqkb9ij1735t21)" height="31.25" rx="4.1667" ry="4.1667" style="stroke:url(#gqkb9ij1735t21);stroke-width:1.0417;" width="305.3813" x="276.4792" y="391.0833"/><rect fill="url(#gqkb9ij1735t21)" height="4.1667" style="stroke:url(#gqkb9ij1735t21);stroke-width:1.0417;" width="305.3813" x="276.4792" y="418.1667"/><rect fill="none" height="154.6224" rx="4.1667" ry="4.1667" style="stroke:#2FA4E7;stroke-width:1.0417;" width="305.3813" x="276.4792" y="391.0833"/><ellipse cx="383.9338" cy="406.7083" fill="#EDF0F2" rx="10.4167" ry="10.4167" style="stroke:#BABDBF;stroke-width:1.0417;"/><path d="M385.8381,411.1354 Q385.415,411.347 384.943,411.4609 Q384.471,411.5749 383.9664,411.5749 Q382.1109,411.5749 381.1344,410.3704 Q380.1741,409.1497 380.1741,406.8548 Q380.1741,404.5436 381.1344,403.3392 Q382.1109,402.1185 383.9664,402.1185 Q384.471,402.1185 384.943,402.2324 Q385.4312,402.3301 385.8381,402.5579 L385.8381,404.5599 Q385.3824,404.1367 384.943,403.9414 Q384.5035,403.7298 384.0478,403.7298 Q383.0549,403.7298 382.5504,404.5273 Q382.0458,405.3086 382.0458,406.8548 Q382.0458,408.3848 382.5504,409.166 Q383.0549,409.9473 384.0478,409.9473 Q384.5035,409.9473 384.943,409.752 Q385.3824,409.5566 385.8381,409.1335 L385.8381,411.1354 Z " fill="#FFFFFF"/><text fill="#F8F9FA" font-family="'Verdana'" font-size="11.4583" lengthAdjust="spacing" textLength="82.1386" x="403.7255" y="410.6751">ClaudeService</text><line style="stroke:#2FA4E7;stroke-width:1.0417;" x1="277.5208" x2="580.8188" y1="422.3333" y2="422.3333"/><text fill="#F8F9FA" font-family="'Verdana'" font-size="11.4583" lengthAdjust="spacing" textLength="102.0844" x="282.7292" y="437.1359">-client : Anthropic</text><text fill="#F8F9FA" font-family="'Verdana'" font-size="11.4583" lengthAdjust="spacing" textLength="166.9123" x="282.7292" y="450.4741">-session_store : SessionStore</text><text fill="#F8F9FA" font-family="'Verdana'" font-size="11.4583" lengthAdjust="spacing" textLength="165.8885" x="282.7292" y="463.8123">-prompt_svc : PromptService</text><line style="stroke:#2FA4E7;stroke-width:1.0417;" x1="277.5208" x2="580.8188" y1="470.6813" y2="470.6813"/><text fill="#F8F9FA" font-family="'Verdana'" font-size="11.4583" lengthAdjust="spacing" textLength="292.8813" x="282.7292" y="485.4839">+analyze(session_id, product, target, content) : str</text><text fill="#F8F9FA" font-family="'Verdana'" font-size="11.4583" lengthAdjust="spacing" textLength="183.5012" x="282.7292" y="498.8221">+generate_title(session_id) : str</text><text fill="#F8F9FA" font-family="'Verdana'" font-size="11.4583" lengthAdjust="spacing" textLength="174.2976" x="282.7292" y="512.1603">+differentiate(session_id) : str</text><text fill="#F8F9FA" font-family="'Verdana'" font-size="11.4583" lengthAdjust="spacing" textLength="196.6715" x="282.7292" y="525.4985">+refine(session_id, feedback) : str</text><text fill="#F8F9FA" font-family="'Verdana'" font-size="11.4583" lengthAdjust="spacing" textLength="209.0307" x="282.7292" y="538.8367">-_call_api(session_id, user_msg) : str</text></g><!--class PromptService--><g class="entity" data-qualified-name="titlegene..services..PromptService" data-source-line="35" id="ent0007"><rect fill="url(#gqkb9ij1735t20)" height="127.946" rx="4.1667" ry="4.1667" style="stroke:#2FA4E7;stroke-width:1.0417;" width="273.4009" x="59.1354" y="614.875"/><rect fill="url(#gqkb9ij1735t21)" height="31.25" rx="4.1667" ry="4.1667" style="stroke:url(#gqkb9ij1735t21);stroke-width:1.0417;" width="273.4009" x="59.1354" y="614.875"/><rect fill="url(#gqkb9ij1735t21)" height="4.1667" style="stroke:url(#gqkb9ij1735t21);stroke-width:1.0417;" width="273.4009" x="59.1354" y="641.9583"/><rect fill="none" height="127.946" rx="4.1667" ry="4.1667" style="stroke:#2FA4E7;stroke-width:1.0417;" width="273.4009" x="59.1354" y="614.875"/><ellipse cx="149.7159" cy="630.5" fill="#EDF0F2" rx="10.4167" ry="10.4167" style="stroke:#BABDBF;stroke-width:1.0417;"/><path d="M151.6202,634.9271 Q151.197,635.1387 150.725,635.2526 Q150.253,635.3665 149.7485,635.3665 Q147.893,635.3665 146.9164,634.1621 Q145.9561,632.9414 145.9561,630.6465 Q145.9561,628.3353 146.9164,627.1309 Q147.893,625.9102 149.7485,625.9102 Q150.253,625.9102 150.725,626.0241 Q151.2133,626.1217 151.6202,626.3496 L151.6202,628.3516 Q151.1645,627.9284 150.725,627.7331 Q150.2856,627.5215 149.8298,627.5215 Q148.837,627.5215 148.3324,628.319 Q147.8279,629.1003 147.8279,630.6465 Q147.8279,632.1764 148.3324,632.9577 Q148.837,633.7389 149.8298,633.7389 Q150.2856,633.7389 150.725,633.5436 Q151.1645,633.3483 151.6202,632.9251 L151.6202,634.9271 Z " fill="#FFFFFF"/><text fill="#F8F9FA" font-family="'Verdana'" font-size="11.4583" lengthAdjust="spacing" textLength="83.9066" x="169.5076" y="634.4668">PromptService</text><line style="stroke:#2FA4E7;stroke-width:1.0417;" x1="60.1771" x2="331.4946" y1="646.125" y2="646.125"/><text fill="#F8F9FA" font-family="'Verdana'" font-size="11.4583" lengthAdjust="spacing" textLength="142.0542" x="65.3854" y="660.9276">+ANALYZE_PROMPT : str</text><text fill="#F8F9FA" font-family="'Verdana'" font-size="11.4583" lengthAdjust="spacing" textLength="171.7351" x="65.3854" y="674.2658">+TITLE_SYSTEM_PROMPT : str</text><text fill="#F8F9FA" font-family="'Verdana'" font-size="11.4583" lengthAdjust="spacing" textLength="166.1179" x="65.3854" y="687.604">+DIFF_SYSTEM_PROMPT : str</text><line style="stroke:#2FA4E7;stroke-width:1.0417;" x1="60.1771" x2="331.4946" y1="694.473" y2="694.473"/><text fill="#F8F9FA" font-family="'Verdana'" font-size="11.4583" lengthAdjust="spacing" textLength="260.9009" x="65.3854" y="709.2755">+build_analyze(product, target, content) : str</text><text fill="#F8F9FA" font-family="'Verdana'" font-size="11.4583" lengthAdjust="spacing" textLength="185.9517" x="65.3854" y="722.6137">+build_title_request(report) : str</text><text fill="#F8F9FA" font-family="'Verdana'" font-size="11.4583" lengthAdjust="spacing" textLength="146.8267" x="65.3854" y="735.952">+build_diff_request() : str</text></g><!--class SessionStore--><g class="entity" data-qualified-name="titlegene..services..SessionStore" data-source-line="44" id="ent0008"><rect fill="url(#gqkb9ij1735t20)" height="141.2842" rx="4.1667" ry="4.1667" style="stroke:#2FA4E7;stroke-width:1.0417;" width="213.1887" x="369.4479" y="608.2083"/><rect fill="url(#gqkb9ij1735t21)" height="31.25" rx="4.1667" ry="4.1667" style="stroke:url(#gqkb9ij1735t21);stroke-width:1.0417;" width="213.1887" x="369.4479" y="608.2083"/><rect fill="url(#gqkb9ij1735t21)" height="4.1667" style="stroke:url(#gqkb9ij1735t21);stroke-width:1.0417;" width="213.1887" x="369.4479" y="635.2917"/><rect fill="none" height="141.2842" rx="4.1667" ry="4.1667" style="stroke:#2FA4E7;stroke-width:1.0417;" width="213.1887" x="369.4479" y="608.2083"/><ellipse cx="434.7479" cy="623.8333" fill="#EDF0F2" rx="10.4167" ry="10.4167" style="stroke:#BABDBF;stroke-width:1.0417;"/><path d="M436.6522,628.2604 Q436.229,628.472 435.757,628.5859 Q435.285,628.6999 434.7805,628.6999 Q432.925,628.6999 431.9484,627.4954 Q430.9881,626.2747 430.9881,623.9798 Q430.9881,621.6686 431.9484,620.4642 Q432.925,619.2435 434.7805,619.2435 Q435.285,619.2435 435.757,619.3574 Q436.2453,619.4551 436.6522,619.6829 L436.6522,621.6849 Q436.1965,621.2617 435.757,621.0664 Q435.3176,620.8548 434.8618,620.8548 Q433.869,620.8548 433.3644,621.6523 Q432.8599,622.4336 432.8599,623.9798 Q432.8599,625.5098 433.3644,626.291 Q433.869,627.0723 434.8618,627.0723 Q435.3176,627.0723 435.757,626.877 Q436.1965,626.6816 436.6522,626.2585 L436.6522,628.2604 Z " fill="#FFFFFF"/><text fill="#F8F9FA" font-family="'Verdana'" font-size="11.4583" lengthAdjust="spacing" textLength="74.2554" x="454.5396" y="627.8001">SessionStore</text><line style="stroke:#2FA4E7;stroke-width:1.0417;" x1="370.4896" x2="581.5949" y1="639.4583" y2="639.4583"/><text fill="#F8F9FA" font-family="'Verdana'" font-size="11.4583" lengthAdjust="spacing" textLength="71.4915" x="375.6979" y="654.2609">-_store : dict</text><text fill="#F8F9FA" font-family="'Verdana'" font-size="11.4583" lengthAdjust="spacing" textLength="122.4945" x="375.6979" y="667.5991">+MAX_LOOP : int = 2</text><line style="stroke:#2FA4E7;stroke-width:1.0417;" x1="370.4896" x2="581.5949" y1="674.4681" y2="674.4681"/><text fill="#F8F9FA" font-family="'Verdana'" font-size="11.4583" lengthAdjust="spacing" textLength="113.7665" x="375.6979" y="689.2707">+create(session_id)</text><text fill="#F8F9FA" font-family="'Verdana'" font-size="11.4583" lengthAdjust="spacing" textLength="169.072" x="375.6979" y="702.6089">+get_history(session_id) : list</text><text fill="#F8F9FA" font-family="'Verdana'" font-size="11.4583" lengthAdjust="spacing" textLength="200.6887" x="375.6979" y="715.9471">+append(session_id, role, content)</text><text fill="#F8F9FA" font-family="'Verdana'" font-size="11.4583" lengthAdjust="spacing" textLength="190.3046" x="375.6979" y="729.2853">+get_loop_count(session_id) : int</text><text fill="#F8F9FA" font-family="'Verdana'" font-size="11.4583" lengthAdjust="spacing" textLength="165.8213" x="375.6979" y="742.6235">+increment_loop(session_id)</text></g><!--class Schemas--><g class="entity" data-qualified-name="titlegene..models..Schemas" data-source-line="56" id="ent0010"><rect fill="url(#gqkb9ij1735t20)" height="101.2695" rx="4.1667" ry="4.1667" style="stroke:#2FA4E7;stroke-width:1.0417;" width="114.3102" x="640.7604" y="417.7604"/><rect fill="url(#gqkb9ij1735t21)" height="31.25" rx="4.1667" ry="4.1667" style="stroke:url(#gqkb9ij1735t21);stroke-width:1.0417;" width="114.3102" x="640.7604" y="417.7604"/><rect fill="url(#gqkb9ij1735t21)" height="4.1667" style="stroke:url(#gqkb9ij1735t21);stroke-width:1.0417;" width="114.3102" x="640.7604" y="444.8438"/><rect fill="none" height="101.2695" rx="4.1667" ry="4.1667" style="stroke:#2FA4E7;stroke-width:1.0417;" width="114.3102" x="640.7604" y="417.7604"/><ellipse cx="661.9268" cy="433.3854" fill="#EDF0F2" rx="10.4167" ry="10.4167" style="stroke:#BABDBF;stroke-width:1.0417;"/><path d="M663.8311,437.8125 Q663.408,438.0241 662.936,438.138 Q662.464,438.252 661.9594,438.252 Q660.1039,438.252 659.1274,437.0475 Q658.1671,435.8268 658.1671,433.5319 Q658.1671,431.2207 659.1274,430.0163 Q660.1039,428.7956 661.9594,428.7956 Q662.464,428.7956 662.936,428.9095 Q663.4242,429.0072 663.8311,429.235 L663.8311,431.237 Q663.3754,430.8138 662.936,430.6185 Q662.4965,430.4069 662.0408,430.4069 Q661.0479,430.4069 660.5434,431.2044 Q660.0388,431.9857 660.0388,433.5319 Q660.0388,435.0618 660.5434,435.8431 Q661.0479,436.6243 662.0408,436.6243 Q662.4965,436.6243 662.936,436.429 Q663.3754,436.2337 663.8311,435.8105 L663.8311,437.8125 Z " fill="#FFFFFF"/><text fill="#F8F9FA" font-family="'Verdana'" font-size="11.4583" lengthAdjust="spacing" textLength="68.4311" x="676.9314" y="437.3522">schemas.py</text><line style="stroke:#2FA4E7;stroke-width:1.0417;" x1="641.8021" x2="754.029" y1="449.0104" y2="449.0104"/><text fill="#F8F9FA" font-family="'Verdana'" font-size="11.4583" lengthAdjust="spacing" textLength="101.8102" x="647.0104" y="463.813">+AnalyzeRequest</text><text fill="#F8F9FA" font-family="'Verdana'" font-size="11.4583" lengthAdjust="spacing" textLength="81.5679" x="647.0104" y="477.1512">+TitleRequest</text><text fill="#F8F9FA" font-family="'Verdana'" font-size="11.4583" lengthAdjust="spacing" textLength="93.1997" x="647.0104" y="490.4894">+RefineRequest</text><text fill="#F8F9FA" font-family="'Verdana'" font-size="11.4583" lengthAdjust="spacing" textLength="83.2743" x="647.0104" y="503.8276">+APIResponse</text><line style="stroke:#2FA4E7;stroke-width:1.0417;" x1="641.8021" x2="754.029" y1="510.6966" y2="510.6966"/></g><!--link Main to Router--><g class="link" data-entity-1="ent0002" data-entity-2="ent0004" data-link-type="dependency" data-source-line="72" id="lnk12"><path codeLine="72" d="M563.5417,139.3854 C563.5417,158.3646 563.5417,175.6979 563.5417,195.9896" fill="none" id="Main-to-Router" style="stroke:#2FA4E7;stroke-width:3.125;"/><polygon fill="#2FA4E7" points="563.5417,201.1979,567.7083,191.8229,563.5417,195.9896,559.375,191.8229,563.5417,201.1979" style="stroke:#2FA4E7;stroke-width:3.125;stroke-linejoin:miter;stroke-miterlimit:10;"/></g><!--link Router to ClaudeService--><g class="link" data-entity-1="ent0004" data-entity-2="ent0006" data-link-type="dependency" data-source-line="73" id="lnk13"><path codeLine="73" d="M526.8229,316.5313 C511.9792,339.4479 497.4566,361.889 481.5191,386.4932" fill="none" id="Router-to-ClaudeService" style="stroke:#2FA4E7;stroke-width:3.125;"/><polygon fill="#2FA4E7" points="478.6875,390.8646,487.2814,385.2614,481.5191,386.4932,480.2873,380.7309,478.6875,390.8646" style="stroke:#2FA4E7;stroke-width:3.125;stroke-linejoin:miter;stroke-miterlimit:10;"/></g><!--link Router to Schemas--><g class="link" data-entity-1="ent0004" data-entity-2="ent0010" data-link-type="dependency" data-source-line="74" id="lnk14"><path codeLine="74" d="M600.2604,316.5313 C620.6979,348.0938 643.0755,382.6489 662.763,413.0552" fill="none" id="Router-to-Schemas" style="stroke:#2FA4E7;stroke-width:3.125;"/><polygon fill="#2FA4E7" points="665.5938,417.4271,663.996,407.293,662.763,413.0552,657.0009,411.8222,665.5938,417.4271" style="stroke:#2FA4E7;stroke-width:3.125;stroke-linejoin:miter;stroke-miterlimit:10;"/></g><!--link ClaudeService to PromptService--><g class="link" data-entity-1="ent0006" data-entity-2="ent0007" data-link-type="dependency" data-source-line="75" id="lnk15"><path codeLine="75" d="M343.2708,546.1354 C318.0625,568.6458 294.6764,589.5307 270.5201,611.1037" fill="none" id="ClaudeService-to-PromptService" style="stroke:#2FA4E7;stroke-width:3.125;"/><polygon fill="#2FA4E7" points="266.6354,614.5729,276.4033,611.436,270.5201,611.1037,270.8525,605.2205,266.6354,614.5729" style="stroke:#2FA4E7;stroke-width:3.125;stroke-linejoin:miter;stroke-miterlimit:10;"/></g><!--link ClaudeService to SessionStore--><g class="link" data-entity-1="ent0006" data-entity-2="ent0008" data-link-type="dependency" data-source-line="76" id="lnk16"><path codeLine="76" d="M446.4167,546.1354 C450.9688,566.3333 454.7009,582.9186 459.1592,602.7415" fill="none" id="ClaudeService-to-SessionStore" style="stroke:#2FA4E7;stroke-width:3.125;"/><polygon fill="#2FA4E7" points="460.3021,607.8229,462.3101,597.7621,459.1592,602.7415,454.1798,599.5907,460.3021,607.8229" style="stroke:#2FA4E7;stroke-width:3.125;stroke-linejoin:miter;stroke-miterlimit:10;"/></g><!--link ClaudeService to Config--><g class="link" data-entity-1="ent0006" data-entity-2="ent0011" data-link-type="dependency" data-source-line="77" id="lnk17"><path codeLine="77" d="M539.9792,546.1354 C579.375,573.4063 618.4049,600.4213 653.7278,624.8692" fill="none" id="ClaudeService-to-Config" style="stroke:#2FA4E7;stroke-width:3.125;"/><polygon fill="#2FA4E7" points="658.0104,627.8333,652.673,619.0718,653.7278,624.8692,647.9304,625.924,658.0104,627.8333" style="stroke:#2FA4E7;stroke-width:3.125;stroke-linejoin:miter;stroke-miterlimit:10;"/></g><?plantuml-src ZLHTRzem57tFh_1uQjLcxQfg3vCs2L6geGA9I2QDlLYkSw5MZPFPJYKwzR_l9ev34kWqNi3t7D-FuylvO9zW1uI3BYKm5PXdeGgcsOvmoOmPMwl5OsbXndELY5SWrnrAmVWpsq9YznA81cwPsae8WYPEHbPO2LjGS3KYVuA0kAHaj6D2VIps8y8CMU1l10b-BbXHa2_adXaxZcSk9CK6JC7KsRax2yLbcG7LENQbJHr-grAtHHkaBbbTQMfMRMXcmTTTrRI6WudTDIoFfHtcaJXAKdB52d7559FxLsXwwK4-VLZFV8gHYSq6D2Wha7QAe64Zb4VUZkOoe5y4X-5W4ybGZyI1xJWXbm9BLUCe-wJpGd2F6316v8eQcsj0GkBEINNqd4Bdky9IyyAH4DU7fe9lsqlXiudiak2jhEJsabYcju3Vk3GMkpZ79CQsUdgfg9Fga670wmlsBgsHhTl81Y1xHDtwp91o9YL5gNla4eMbExFjaclblSAz-GyBCrwEv-jVKngleaMSzdjAP-byIfDraauN9mbti_lxV-6FfP0PzIB_fx3kKgqgrV2x16FFD1IvFasiz6rvxqxVNO_3UhNRambkVLgkOV1IXoUtz4bKT_Q3XvGORNUgA41blSVHkOJ3kDrqCiyBolDIsK56eTg4Q1OQxKqvzgd65kEVT1v5iRj7lfART_vzkpm3UMGgXgDzCkCz9N77pewu1rmvaTljg5ve45lLMpm8LbQ4xfSh0_ssclAeoqPiVVL9VV9UEbwctrTHF9jGp48VfklE0ryiehlft0LmvX6lFIGqkL9WmzlmyoZegKCdqOzbEj2eHjFeORfCMkJJzSrjtIDsMHjx67vhd3Pe3BUAz3oh2pG21drJgv2-2HtZFHSxXfqsVm40?></g></svg>